<mxfile host="app.diagrams.net" modified="2024-04-29T13:48:12.908Z" agent="Mozilla/5.0 (Windows NT 10.0; Win64; x64) AppleWebKit/537.36 (KHTML, like Gecko) Chrome/124.0.0.0 Safari/537.36" version="24.3.1" etag="0qvG2IKX_332LrVyComx" type="device">
  <diagram id="y1Pj0N5vEuCt9qAgNXof" name="Page-1">
    <mxGraphModel dx="1434" dy="746" grid="1" gridSize="10" guides="1" tooltips="1" connect="1" arrows="1" fold="1" page="1" pageScale="1" pageWidth="827" pageHeight="1169" math="0" shadow="0">
      <root>
        <mxCell id="0" />
        <mxCell id="1" parent="0" />
        <mxCell id="gX7fXIBJWiji3VZNEi87-7" style="edgeStyle=orthogonalEdgeStyle;rounded=0;orthogonalLoop=1;jettySize=auto;html=1;entryX=0;entryY=0.5;entryDx=0;entryDy=0;" edge="1" parent="1" source="gX7fXIBJWiji3VZNEi87-1" target="gX7fXIBJWiji3VZNEi87-2">
          <mxGeometry relative="1" as="geometry" />
        </mxCell>
        <mxCell id="gX7fXIBJWiji3VZNEi87-1" value="Employe" style="shape=umlActor;verticalLabelPosition=bottom;verticalAlign=top;html=1;outlineConnect=0;" vertex="1" parent="1">
          <mxGeometry x="130" y="390" width="30" height="60" as="geometry" />
        </mxCell>
        <mxCell id="gX7fXIBJWiji3VZNEi87-8" style="edgeStyle=orthogonalEdgeStyle;rounded=0;orthogonalLoop=1;jettySize=auto;html=1;entryX=0;entryY=0.5;entryDx=0;entryDy=0;" edge="1" parent="1" source="gX7fXIBJWiji3VZNEi87-2" target="gX7fXIBJWiji3VZNEi87-3">
          <mxGeometry relative="1" as="geometry" />
        </mxCell>
        <mxCell id="gX7fXIBJWiji3VZNEi87-9" style="edgeStyle=orthogonalEdgeStyle;rounded=0;orthogonalLoop=1;jettySize=auto;html=1;" edge="1" parent="1" source="gX7fXIBJWiji3VZNEi87-2" target="gX7fXIBJWiji3VZNEi87-4">
          <mxGeometry relative="1" as="geometry" />
        </mxCell>
        <mxCell id="gX7fXIBJWiji3VZNEi87-2" value="Se connecter" style="ellipse;whiteSpace=wrap;html=1;" vertex="1" parent="1">
          <mxGeometry x="240" y="390" width="120" height="80" as="geometry" />
        </mxCell>
        <mxCell id="gX7fXIBJWiji3VZNEi87-3" value="Valider ou non un avis" style="ellipse;whiteSpace=wrap;html=1;" vertex="1" parent="1">
          <mxGeometry x="414" y="330" width="120" height="80" as="geometry" />
        </mxCell>
        <mxCell id="gX7fXIBJWiji3VZNEi87-4" value="Ajouter consommation de nourriture" style="ellipse;whiteSpace=wrap;html=1;" vertex="1" parent="1">
          <mxGeometry x="414" y="460" width="120" height="80" as="geometry" />
        </mxCell>
      </root>
    </mxGraphModel>
  </diagram>
</mxfile>
